<?xml version="1.0" encoding="UTF-8"?>
<svg xmlns="http://www.w3.org/2000/svg" xmlns:xlink="http://www.w3.org/1999/xlink" width="2634.9pt" height="437.4pt" viewBox="0 0 2634.9 437.4" version="1.1">
<defs>
<clipPath id="clip1">
  <path d="M 1478 285 L 2569 285 L 2569 437.398438 L 1478 437.398438 Z M 1478 285 "/>
</clipPath>
<clipPath id="clip2">
  <path d="M 4 0 L 2634.898438 0 L 2634.898438 291 L 4 291 Z M 4 0 "/>
</clipPath>
</defs>
<g id="surface1">
<g clip-path="url(#clip1)" clip-rule="nonzero">
<path style=" stroke:none;fill-rule:evenodd;fill:rgb(8.227539%,8.616638%,8.616638%);fill-opacity:1;" d="M 2458.289063 350.15625 C 2441.761719 353.445313 2355.941406 369.914063 2351.488281 369.917969 C 2347.039063 369.957031 2332.398438 373.242188 2338.699219 363.007813 C 2343.890625 354.609375 2357.621094 342.707031 2362.390625 338.730469 C 2363.398438 337.867188 2364.78125 337.386719 2366.148438 337.386719 C 2379.898438 337.296875 2455.589844 336.816406 2471.488281 336.707031 C 2472.800781 336.707031 2474.171875 337.328125 2474 338.324219 C 2473.410156 341.347656 2470.710938 347.695313 2458.289063 350.15625 Z M 2122.21875 352.285156 C 2105.691406 355.570313 2019.878906 372.039063 2015.398438 372.070313 C 2010.949219 372.089844 1996.328125 375.382813 2002.640625 365.160156 C 2007.808594 356.738281 2021.578125 344.847656 2026.308594 340.878906 C 2027.320313 340.003906 2028.679688 339.527344 2030.089844 339.515625 C 2043.820313 339.414063 2119.511719 338.945313 2135.410156 338.847656 C 2136.71875 338.832031 2138.109375 339.460938 2137.898438 340.464844 C 2137.328125 343.492188 2134.628906 349.820313 2122.21875 352.285156 Z M 2568.601563 315.976563 C 2567.101563 303.9375 2552.898438 293.78125 2541.25 287.367188 L 2538.28125 285.742188 L 2275.839844 287.402344 C 2268.390625 287.457031 2259.808594 292.34375 2243.019531 312.054688 L 2230.601563 312.128906 C 2226.121094 302.730469 2214.851563 294.820313 2205.171875 289.496094 L 2202.199219 287.867188 L 1939.761719 289.535156 C 1932.320313 289.585938 1923.710938 294.472656 1906.941406 314.195313 L 1894.699219 314.285156 L 1873.890625 289.960938 L 1791.699219 290.480469 L 1748.828125 352.492188 L 1660.441406 353.050781 C 1666.421875 347.945313 1670.691406 344.53125 1672.800781 343.148438 C 1677.21875 340.261719 1686.628906 338.921875 1690.511719 338.722656 L 1697.210938 338.363281 L 1727.539063 290.894531 L 1638.980469 291.445313 L 1478.050781 408.207031 L 1713.570313 406.714844 L 1691.769531 437.398438 L 1814.960938 436.625 L 1836.789063 405.828125 L 1859.460938 405.675781 C 1860.78125 407.28125 1862.289063 408.851563 1864.121094 410.367188 C 1865.410156 411.445313 1869.429688 414.753906 1916.390625 434.886719 L 1918.890625 435.960938 L 2131.660156 434.613281 C 2150.128906 434.503906 2158.738281 426.582031 2166.378906 419.570313 C 2168.761719 417.382813 2172.378906 412.578125 2178.550781 403.65625 L 2195.121094 403.566406 L 2195.289063 403.257813 C 2196.679688 404.957031 2198.238281 406.632813 2200.191406 408.238281 C 2201.488281 409.324219 2205.511719 412.617188 2252.46875 432.765625 L 2254.980469 433.835938 L 2467.730469 432.480469 C 2486.191406 432.367188 2494.820313 424.457031 2502.449219 417.433594 C 2506.570313 413.636719 2514.480469 402.039063 2532.910156 374.464844 C 2542.351563 360.339844 2559.898438 334.023438 2563.101563 331.035156 C 2567.390625 327.039063 2569.339844 321.703125 2568.601563 315.980469 Z M 2568.601563 315.976563 "/>
</g>
<path style=" stroke:none;fill-rule:evenodd;fill:rgb(100%,100%,100%);fill-opacity:1;" d="M 1867.941406 302.988281 L 1798.550781 303.429688 L 1755.671875 365.4375 L 1625.828125 366.25 C 1625.828125 366.25 1656.828125 338.054688 1665.710938 332.269531 C 1674.578125 326.488281 1689.859375 325.742188 1689.859375 325.742188 L 1703.710938 304.027344 L 1643.238281 304.414063 L 1518.421875 394.957031 L 1736.109375 393.566406 L 1714.371094 424.257813 L 1808.230469 423.664063 L 1882.039063 319.445313 Z M 1867.941406 302.988281 "/>
<path style=" stroke:none;fill-rule:evenodd;fill:rgb(100%,100%,100%);fill-opacity:1;" d="M 2163.488281 334.84375 C 2160.980469 341.230469 2147.101563 361.675781 2140.121094 364.269531 C 2133.109375 366.867188 1969.738281 394.625 1969.738281 394.625 C 1941.671875 389.707031 1958.71875 366.703125 1958.71875 366.703125 C 1958.71875 366.703125 1981.378906 348.179688 1994.800781 335.902344 C 2012.480469 319.800781 2025.910156 321.070313 2025.910156 321.070313 C 2025.910156 321.070313 2135.378906 320.390625 2151.941406 320.28125 C 2168.480469 320.179688 2166 328.457031 2163.488281 334.84375 Z M 2198.921875 300.882813 L 1939.859375 302.527344 C 1926.5 302.613281 1875.398438 378.039063 1869.71875 385.710938 C 1864.058594 393.386719 1868.539063 397.175781 1872.378906 400.335938 C 1876.210938 403.527344 1921.519531 422.957031 1921.519531 422.957031 C 1921.519531 422.957031 2118.21875 421.707031 2131.578125 421.613281 C 2144.941406 421.527344 2150.628906 416.386719 2157.589844 409.996094 C 2164.539063 403.585938 2209.929688 331.367188 2218.160156 323.679688 C 2226.359375 315.980469 2198.921875 300.882813 2198.921875 300.882813 Z M 2198.921875 300.882813 "/>
<path style=" stroke:none;fill-rule:evenodd;fill:rgb(100%,100%,100%);fill-opacity:1;" d="M 2499.539063 332.710938 C 2497.039063 339.101563 2483.171875 359.550781 2476.191406 362.140625 C 2469.171875 364.738281 2305.800781 392.492188 2305.800781 392.492188 C 2277.761719 387.570313 2294.789063 364.558594 2294.789063 364.558594 C 2294.789063 364.558594 2316.300781 344.691406 2330.878906 333.785156 C 2345.441406 322.875 2361.980469 318.953125 2361.980469 318.953125 C 2361.980469 318.953125 2471.449219 318.261719 2488.011719 318.140625 C 2504.550781 318.039063 2502.058594 326.324219 2499.539063 332.710938 Z M 2534.96875 298.75 L 2275.921875 300.386719 C 2262.550781 300.480469 2211.480469 375.90625 2205.800781 383.582031 C 2200.128906 391.257813 2204.609375 395.046875 2208.429688 398.21875 C 2212.269531 401.382813 2257.589844 420.820313 2257.589844 420.820313 C 2257.589844 420.820313 2454.269531 419.574219 2467.628906 419.476563 C 2481.011719 419.40625 2486.710938 414.257813 2493.660156 407.867188 C 2500.609375 401.460938 2545.988281 329.238281 2554.210938 321.539063 C 2562.449219 313.855469 2534.96875 298.75 2534.96875 298.75 Z M 2534.96875 298.75 "/>
<g clip-path="url(#clip2)" clip-rule="nonzero">
<path style=" stroke:none;fill-rule:evenodd;fill:rgb(8.227539%,8.616638%,8.616638%);fill-opacity:1;" d="M 949.546875 116.558594 L 949.050781 118.207031 L 948.441406 119.835938 L 947.71875 121.476563 L 946.867188 123.101563 L 946.316406 124.027344 L 945.691406 124.953125 L 944.992188 125.875 L 944.207031 126.820313 L 943.289063 127.746094 L 942.238281 128.679688 L 941.046875 129.597656 L 939.359375 130.664063 L 938.375 131.1875 L 936.410156 132.089844 L 934.382813 132.8125 L 932.175781 133.4375 L 930.019531 133.902344 L 926.195313 134.566406 L 768.15625 157.96875 L 766.59375 158.113281 L 765.339844 158.113281 L 764.398438 157.992188 L 763.890625 157.839844 L 763.285156 157.539063 L 762.789063 157.097656 L 762.582031 156.773438 L 762.480469 156.414063 L 762.433594 156.0625 L 762.496094 155.5625 L 762.636719 155.066406 L 763.097656 154.125 L 763.375 153.710938 L 764.089844 152.753906 L 765.730469 150.871094 L 778.183594 137.261719 L 781.140625 134.203125 L 782.710938 132.671875 L 784.390625 131.140625 L 786.195313 129.617188 L 788.113281 128.085938 L 790.769531 126.1875 L 792.246094 125.234375 L 793.847656 124.28125 L 796.707031 122.753906 L 799.203125 121.582031 L 802.089844 120.445313 L 804.863281 119.5 L 807.460938 118.761719 L 810.492188 118.039063 L 813.402344 117.472656 L 817.566406 116.867188 L 820.925781 116.507813 L 823.722656 116.292969 L 826.527344 116.128906 L 832.285156 115.960938 L 949.964844 114.929688 L 949.546875 116.554688 Z M 2634.859375 99.789063 L 2634.710938 98.847656 L 2634.46875 97.945313 L 2634.140625 97.019531 L 2633.558594 95.851563 L 2632.800781 94.6875 L 2631.839844 93.507813 L 2630.730469 92.347656 L 2629.730469 91.457031 L 2628.628906 90.570313 L 2627.441406 89.691406 L 2626.128906 88.816406 L 2622.871094 86.820313 L 2583.53125 63.867188 L 2581.128906 62.585938 L 2579.78125 61.9375 L 2578.308594 61.304688 L 2575.890625 60.398438 L 2574.050781 59.847656 L 2571.851563 59.3125 L 2569.140625 58.835938 L 2566.851563 58.5625 L 2563.898438 58.375 L 2558.890625 58.238281 L 2550.070313 58.308594 L 1989.289063 61.898438 L 1987.621094 62.0625 L 1986.488281 62.3125 L 1985.5 62.652344 L 1984.640625 63.082031 L 1983.839844 63.546875 L 1983.160156 64.039063 L 1982.101563 64.996094 L 1981.371094 65.789063 L 1980.050781 67.375 L 1915.03125 148.207031 L 1914.699219 148.515625 L 1914.449219 148.640625 L 1914.140625 148.703125 L 1913.78125 148.632813 L 1913.148438 148.25 L 1803.160156 65.734375 L 1801.800781 64.863281 L 1800.550781 64.207031 L 1799.128906 63.660156 L 1798.25 63.414063 L 1796.960938 63.226563 L 1795.660156 63.125 L 1695.660156 63.769531 L 1693.460938 63.902344 L 1691.648438 64.175781 L 1690.300781 64.507813 L 1688.960938 64.964844 L 1688.03125 65.382813 L 1687.261719 65.789063 L 1686.589844 66.210938 L 1685.488281 67.054688 L 1684.160156 68.355469 L 1683.378906 69.242188 L 1682 71.003906 L 1672.320313 83.953125 L 1645.871094 84.105469 L 1645.589844 83.675781 L 1645.070313 83.066406 L 1644.410156 82.464844 L 1624.230469 66.285156 L 1622.929688 65.378906 L 1622.371094 65.074219 L 1621.109375 64.578125 L 1620.308594 64.382813 L 1618.851563 64.246094 L 1465.980469 65.210938 L 1464.351563 65.328125 L 1463.359375 65.535156 L 1462.011719 65.992188 L 1461.019531 66.460938 L 1321.941406 143.472656 L 1321.25 143.746094 L 1320.648438 143.816406 L 1320.050781 143.757813 L 1319.410156 143.519531 L 1318.480469 142.941406 L 1214.398438 69.34375 L 1212.828125 68.347656 L 1211.71875 67.789063 L 1210.320313 67.277344 L 1209.261719 67.046875 L 1207.988281 66.894531 L 1206.03125 66.855469 L 1113.109375 67.441406 L 1111.339844 67.542969 L 1110.101563 67.71875 L 1108.941406 68.035156 L 1108.03125 68.414063 L 1107.039063 68.976563 L 1106.320313 69.546875 L 1105.601563 70.207031 L 1104.421875 71.542969 L 1085.171875 94.582031 L 1056.261719 94.769531 L 1055.859375 93.496094 L 1055.328125 92.210938 L 1054.640625 90.9375 L 1053.730469 89.667969 L 1052.699219 88.40625 L 1051.578125 87.261719 L 1050.328125 86.132813 L 1048.980469 85.007813 L 1046.03125 82.746094 L 1040.121094 78.378906 L 1037.03125 76.261719 L 1035.339844 75.195313 L 1033.511719 74.167969 L 1031.148438 72.945313 L 1029.820313 72.34375 L 1027.210938 71.300781 L 1024.488281 70.417969 L 1022.011719 69.769531 L 1019.890625 69.324219 L 1017.371094 68.902344 L 1014.800781 68.582031 L 1011.71875 68.347656 L 1008.949219 68.210938 L 1003.328125 68.140625 L 760.351563 69.691406 L 755.3125 69.828125 L 750.421875 70.082031 L 746.195313 70.453125 L 741.632813 71.039063 L 739.070313 71.46875 L 735.160156 72.265625 L 731.816406 73.117188 L 728.425781 74.132813 L 724.957031 75.320313 L 721.890625 76.53125 L 719.675781 77.488281 L 717.605469 78.445313 L 713.796875 80.371094 L 711.046875 81.878906 L 708.449219 83.398438 L 705.964844 84.914063 L 665.644531 85.160156 L 665.300781 84.167969 L 664.84375 83.175781 L 664.269531 82.175781 L 663.574219 81.1875 L 662.738281 80.195313 L 661.769531 79.195313 L 660.648438 78.214844 L 659.71875 77.476563 L 658.660156 76.734375 L 657.507813 75.996094 L 656.210938 75.28125 L 654.800781 74.550781 L 653.230469 73.832031 L 651.5 73.113281 L 649.824219 72.492188 L 646.105469 71.246094 L 641.835938 70.046875 L 635.367188 68.441406 L 349.648438 1.875 L 347.441406 1.417969 L 343.195313 0.675781 L 340.804688 0.375 L 338 0.113281 L 334.964844 -0.0195313 L 331.464844 0.03125 L 329.503906 0.128906 L 325.734375 0.488281 L 322.15625 0.976563 L 152.8125 27.855469 L 144.394531 29.28125 C 144.394531 29.28125 131.820313 31.757813 129.226563 36.699219 C 124.382813 49.207031 138.527344 61.59375 151.585938 71.007813 L 269.226563 104.9375 L 272.5625 105.769531 L 275.0625 106.285156 L 278.0625 106.753906 L 279.707031 106.945313 L 281.289063 107.0625 L 282.820313 107.121094 L 285.644531 107.113281 L 289.867188 106.90625 L 295.433594 106.5625 L 297.65625 106.5 L 300.25 106.550781 L 302.59375 106.753906 L 304.890625 107.121094 L 307.449219 107.671875 L 309.601563 108.277344 L 311.382813 108.878906 L 314.679688 110.121094 L 337.824219 119.960938 L 328.660156 129.789063 L 319.578125 139.625 L 308.753906 151.472656 L 298.058594 163.328125 L 285.574219 177.273438 L 284.546875 178.328125 L 282.648438 180.042969 L 281.792969 180.730469 L 280.886719 181.410156 L 279.847656 182.105469 L 278.6875 182.773438 L 276.871094 183.679688 L 275.796875 184.136719 L 274.597656 184.578125 L 273.242188 185.023438 L 270.585938 185.746094 L 267.539063 186.445313 L 191.019531 203.230469 L 114.71875 220.117188 L 38.515625 237.125 L 31.398438 238.789063 L 24.882813 240.480469 L 20.65625 241.703125 C 7.605469 245.847656 0.0585938 251.152344 6.28125 260.722656 C 10.65625 266.351563 21.996094 277.34375 34.1875 279.644531 L 45.214844 281.296875 L 141.464844 290.066406 L 146.113281 290.410156 L 151.160156 290.636719 L 153.847656 290.695313 L 156.660156 290.707031 L 159.429688 290.660156 L 162.3125 290.558594 L 164.546875 290.398438 L 164.589844 290.300781 L 164.742188 290.378906 L 166.96875 290.234375 L 171.140625 289.84375 L 174.820313 289.40625 L 181.265625 288.484375 L 456.546875 243.785156 L 464.269531 242.394531 L 469.117188 241.386719 L 474.347656 240.128906 L 479.023438 238.847656 L 483.1875 237.539063 L 486.953125 236.230469 L 489.769531 235.171875 L 492.457031 234.105469 L 494.980469 233.027344 L 497.398438 231.945313 L 501.863281 229.777344 L 506.890625 227.113281 L 509.710938 225.527344 L 512.402344 223.9375 L 517.511719 220.765625 L 519.933594 219.183594 L 932.585938 216.535156 L 937.226563 216.386719 L 940.980469 216.121094 L 944.242188 215.714844 L 946.347656 215.335938 L 949.363281 214.671875 L 951.847656 213.976563 L 953.921875 213.257813 L 956.421875 212.253906 L 957.867188 211.585938 L 960.472656 210.257813 L 962.714844 208.929688 L 964.304688 207.898438 L 965.796875 206.875 L 968.496094 204.808594 L 993.265625 204.664063 L 992.515625 205.664063 L 991.859375 206.660156 L 991.285156 207.667969 L 990.949219 208.417969 L 990.707031 209.164063 L 990.535156 209.910156 L 990.5 210.671875 L 990.519531 211.140625 L 990.605469 211.632813 L 990.734375 212.148438 L 990.992188 212.648438 L 991.320313 213.15625 L 991.773438 213.664063 L 992.382813 214.160156 L 993.1875 214.675781 L 993.722656 214.941406 L 994.386719 215.191406 L 995.628906 215.550781 L 997.414063 215.871094 L 999.664063 216.046875 L 1002.710938 216.105469 L 1128.648438 215.292969 L 1129.839844 215.171875 L 1130.890625 214.921875 L 1131.558594 214.648438 L 1132.578125 214.015625 L 1133.46875 213.304688 L 1134.601563 212.054688 L 1193.78125 135.117188 L 1295.039063 204.160156 L 1295.890625 204.664063 L 1297.359375 205.375 L 1297.941406 205.570313 L 1299.210938 205.925781 L 1300.039063 206.015625 L 1300.851563 206.054688 L 1301.570313 206.003906 L 1302.871094 205.792969 L 1304.171875 205.425781 L 1305.359375 204.953125 L 1307.050781 204.09375 L 1373.058594 167.722656 L 1373.128906 167.820313 L 1343.359375 202.230469 L 1342.449219 203.339844 L 1341.578125 204.429688 L 1340.839844 205.519531 L 1340.378906 206.269531 L 1340.011719 207.042969 L 1339.710938 207.832031 L 1339.511719 208.609375 L 1339.449219 209.394531 L 1339.5 209.929688 L 1339.621094 210.46875 L 1339.828125 211 L 1340.210938 211.664063 L 1340.519531 211.992188 L 1340.890625 212.296875 L 1341.328125 212.621094 L 1342.25 213.070313 L 1342.949219 213.332031 L 1344.011719 213.582031 L 1345.660156 213.796875 L 1347.761719 213.886719 L 1350.25 213.886719 L 1705.289063 211.605469 L 1706.339844 211.515625 L 1707.390625 211.265625 L 1708.109375 211.015625 L 1709.179688 210.421875 L 1710.121094 209.703125 L 1711.320313 208.46875 L 1776.28125 129.410156 L 1907.441406 206.804688 L 1908.738281 207.441406 L 1909.988281 207.867188 L 1911.070313 208.058594 L 1911.75 208.109375 L 1915.300781 208.757813 L 1918.128906 209.164063 L 1921.410156 209.558594 L 1925.25 209.828125 L 1927.378906 209.953125 L 1931.269531 210.101563 L 1935.171875 210.148438 L 1943.140625 210.128906 L 2056.761719 209.398438 L 2058.058594 209.238281 L 2058.949219 209.035156 L 2060.128906 208.539063 L 2060.578125 208.261719 L 2061.328125 207.691406 L 2061.859375 207.160156 L 2062.800781 206.109375 L 2148.921875 101.664063 L 2207.46875 148.367188 L 2150.21875 154.386719 L 2147.820313 154.753906 L 2146.558594 155.078125 L 2145.769531 155.328125 L 2145.128906 155.601563 L 2144.191406 156.140625 L 2143.828125 156.414063 L 2143.238281 156.929688 L 2142.839844 157.476563 L 2142.558594 158.003906 L 2142.390625 158.53125 L 2142.320313 159.335938 L 2142.371094 159.988281 L 2142.578125 160.644531 L 2142.949219 161.296875 L 2143.429688 161.945313 L 2143.878906 162.382813 L 2144.441406 162.820313 L 2145.148438 163.253906 L 2145.960938 163.691406 L 2146.871094 164.074219 L 2148.980469 164.792969 L 2151.589844 165.5 L 2259.621094 193.824219 L 2261.230469 194.328125 L 2261.890625 194.625 L 2262.621094 194.992188 L 2263.800781 195.710938 L 2277.269531 205.972656 L 2278.488281 206.785156 L 2279.320313 207.195313 L 2280.460938 207.597656 L 2281.511719 207.824219 L 2283.078125 207.945313 L 2284.730469 207.976563 L 2360.828125 207.457031 L 2362.101563 207.40625 L 2363.96875 207.179688 L 2364.980469 206.960938 L 2365.949219 206.605469 L 2366.53125 206.339844 L 2366.929688 206.054688 L 2367.269531 205.773438 L 2367.5 205.492188 L 2367.78125 204.933594 L 2367.878906 204.652344 L 2367.949219 203.984375 L 2367.859375 203.296875 L 2367.621094 202.617188 L 2367.269531 201.945313 L 2366.800781 201.273438 L 2366.230469 200.589844 L 2365.609375 199.921875 L 2364.371094 198.789063 L 2361.609375 196.527344 L 2250.941406 108.253906 L 2455.261719 106.957031 L 2435.441406 130.78125 L 2362.03125 136.003906 L 2359.058594 136.316406 L 2356.738281 136.652344 L 2355.140625 136.988281 L 2353.859375 137.335938 L 2352.988281 137.625 L 2351.671875 138.21875 L 2350.71875 138.816406 L 2350.351563 139.109375 L 2349.808594 139.664063 L 2349.410156 140.21875 L 2349.121094 140.78125 L 2348.980469 141.332031 L 2348.949219 141.902344 L 2349 142.472656 L 2349.140625 143.050781 L 2349.359375 143.613281 L 2349.851563 144.503906 L 2350.488281 145.390625 L 2351.320313 146.28125 L 2352.28125 147.15625 L 2353.480469 148.109375 L 2354.738281 149.058594 L 2357.589844 150.949219 L 2507.199219 246.367188 L 2508.75 247.238281 L 2509.839844 247.71875 L 2511.210938 248.113281 L 2512.441406 248.316406 L 2514.46875 248.394531 L 2516.800781 248.363281 L 2516.828125 248.230469 L 2516.921875 248.367188 L 2594.949219 247.878906 L 2597.289063 247.773438 L 2598.839844 247.570313 L 2599.738281 247.328125 L 2600.351563 247.085938 L 2600.851563 246.808594 L 2601.210938 246.546875 L 2601.511719 246.261719 L 2601.699219 245.984375 L 2601.890625 245.554688 L 2602.011719 245.105469 L 2602.050781 244.683594 L 2602.03125 244.339844 L 2601.859375 243.652344 L 2601.558594 242.980469 L 2601.128906 242.296875 L 2600.46875 241.5 L 2599.738281 240.714844 L 2598.070313 239.136719 L 2526.449219 175.628906 L 2526.019531 175.171875 L 2525.648438 174.714844 L 2525.371094 174.261719 L 2525.171875 173.800781 L 2525.101563 173.332031 L 2525.128906 173.105469 L 2525.230469 172.710938 L 2525.480469 172.308594 L 2525.808594 171.914063 L 2526.308594 171.539063 L 2526.941406 171.148438 L 2530.75 169.3125 L 2533.671875 167.855469 L 2536.429688 166.382813 L 2541.691406 163.429688 L 2549.101563 159.046875 L 2623.050781 114.613281 L 2626.261719 112.578125 L 2627.75 111.550781 L 2629.070313 110.546875 L 2630.230469 109.546875 L 2631.269531 108.542969 L 2632.171875 107.539063 L 2632.941406 106.539063 L 2633.628906 105.457031 L 2634.148438 104.367188 L 2634.550781 103.273438 L 2634.78125 102.199219 L 2634.878906 101.464844 L 2634.898438 101.179688 L 2634.789063 101.074219 L 2634.851563 100.984375 L 2634.898438 100.984375 L 2634.921875 100.710938 L 2634.859375 99.777344 Z M 2634.859375 99.789063 "/>
</g>
<path style=" stroke:none;fill-rule:evenodd;fill:rgb(8.227539%,8.616638%,8.616638%);fill-opacity:1;" d="M 1865.210938 362.046875 L 1865.378906 362.046875 L 1865.230469 362.015625 L 1865.230469 362.039063 Z M 1865.210938 362.046875 "/>
<path style=" stroke:none;fill-rule:evenodd;fill:rgb(100%,100%,100%);fill-opacity:1;" d="M 577.21875 147.960938 L 588.210938 140.675781 L 599.078125 133.460938 L 609.808594 126.332031 L 620.386719 119.316406 L 630.847656 112.371094 L 643.648438 103.859375 L 646.019531 102.203125 L 648.164063 100.523438 L 649.15625 99.707031 L 650.199219 98.726563 L 651.09375 97.765625 L 651.863281 96.851563 L 652.507813 95.941406 L 653.003906 95.070313 L 653.386719 94.203125 L 653.652344 93.367188 L 653.800781 92.546875 L 653.839844 91.746094 L 653.773438 90.945313 L 653.566406 90.007813 L 653.203125 89.128906 L 652.699219 88.273438 L 652.050781 87.476563 L 651.257813 86.710938 L 650.320313 85.988281 L 649.230469 85.3125 L 647.984375 84.664063 L 646.601563 84.082031 L 645.183594 83.554688 L 643.652344 83.085938 L 640.445313 82.210938 L 601.0625 72.992188 L 564.496094 64.445313 L 527.390625 55.765625 L 489.796875 46.960938 L 451.785156 38.046875 L 423.023438 31.304688 L 394.066406 24.496094 L 364.984375 17.671875 L 341.574219 12.171875 L 338.691406 11.566406 L 335.605469 11.039063 L 332.363281 10.632813 L 329.410156 10.425781 L 326.988281 10.371094 L 324.246094 10.476563 L 321.535156 10.707031 L 317.222656 11.296875 L 272.746094 18.398438 L 230.136719 25.222656 L 173.785156 34.238281 L 169.621094 34.945313 L 167.941406 35.320313 L 166.65625 35.703125 L 165.511719 36.1875 L 165.058594 36.445313 L 164.699219 36.695313 L 164.4375 36.960938 L 164.246094 37.234375 L 164.148438 37.492188 L 164.09375 37.746094 L 164.148438 38.128906 L 164.328125 38.488281 L 164.59375 38.835938 L 164.972656 39.164063 L 165.910156 39.753906 L 166.671875 40.117188 L 168.414063 40.804688 L 170.898438 41.554688 L 200.277344 49.332031 L 235.65625 58.6875 L 270.628906 67.914063 L 276.996094 69.554688 L 281.363281 70.554688 L 285.945313 71.445313 L 288.359375 71.851563 L 292.757813 72.4375 L 296.371094 72.789063 L 301.777344 73.148438 L 307.464844 73.351563 L 511.703125 77.523438 L 511.726563 77.671875 L 493.492188 81.242188 L 474.6875 84.996094 L 455.921875 88.785156 L 437.269531 92.601563 L 418.6875 96.472656 L 400.195313 100.34375 L 381.789063 104.265625 L 363.503906 108.210938 L 354.019531 118.144531 L 344.453125 128.269531 L 334.847656 138.570313 L 325.171875 149.054688 L 315.433594 159.710938 L 305.660156 170.503906 L 294.226563 183.253906 L 292.410156 185.222656 L 290.316406 187.273438 L 288.257813 189.039063 L 286.328125 190.460938 L 284.183594 191.828125 L 282.128906 192.957031 L 280.0625 193.882813 L 277.996094 194.664063 L 275.914063 195.332031 L 272.738281 196.164063 L 269.414063 196.921875 L 221.550781 207.347656 L 159.222656 221.023438 L 98.515625 234.445313 L 38.246094 247.851563 L 34.558594 248.738281 L 32.546875 249.300781 L 30.777344 249.898438 L 29.214844 250.601563 L 28.613281 250.945313 L 28.101563 251.296875 L 27.710938 251.660156 L 27.488281 251.925781 L 27.34375 252.195313 L 27.242188 252.476563 L 27.234375 252.757813 L 27.3125 253.113281 L 27.484375 253.441406 L 27.746094 253.722656 L 28.0625 253.976563 L 28.855469 254.414063 L 30.148438 254.898438 L 31.277344 255.203125 L 33.699219 255.664063 L 36.761719 256.082031 L 143.929688 266.429688 L 149.144531 266.828125 L 151.828125 266.96875 L 154.546875 267.054688 L 158.40625 267.066406 L 161.882813 266.941406 L 165.214844 266.707031 L 168.550781 266.347656 L 173.859375 265.601563 L 264.523438 250.15625 L 354.445313 234.804688 L 449.210938 218.597656 L 455.613281 217.425781 L 460.464844 216.40625 L 463.753906 215.601563 L 467.136719 214.6875 L 470.5625 213.613281 L 474.097656 212.382813 L 477.753906 210.945313 L 481.515625 209.328125 L 485.171875 207.566406 L 488.703125 205.734375 L 492.121094 203.820313 L 495.398438 201.898438 L 500.023438 199.023438 L 508.316406 193.585938 L 520.148438 185.773438 L 531.820313 178.03125 L 543.386719 170.367188 L 554.796875 162.820313 L 566.074219 155.351563 Z M 577.21875 147.960938 "/>
<path style=" stroke:none;fill-rule:evenodd;fill:rgb(100%,100%,100%);fill-opacity:1;" d="M 1433.578125 149.769531 L 1438.980469 143.257813 L 1444.289063 136.84375 L 1449.519531 130.519531 L 1454.648438 124.289063 L 1459.71875 118.136719 L 1464.710938 112.085938 L 1469.621094 106.101563 L 1474.46875 100.230469 L 1479.21875 94.425781 L 1483.878906 88.738281 L 1488.480469 83.109375 L 1493.609375 76.851563 L 1494.328125 75.878906 L 1494.609375 75.382813 L 1494.839844 74.886719 L 1494.949219 74.402344 L 1494.960938 73.933594 L 1494.871094 73.464844 L 1494.589844 72.988281 L 1494.339844 72.765625 L 1494.011719 72.546875 L 1493.320313 72.285156 L 1492.808594 72.195313 L 1491.480469 72.097656 L 1469.671875 72.320313 L 1468.878906 72.371094 L 1468.140625 72.472656 L 1467.378906 72.640625 L 1466.210938 73.035156 L 1464.851563 73.722656 L 1457.671875 77.753906 L 1450.769531 81.605469 L 1443.828125 85.519531 L 1436.769531 89.460938 L 1429.640625 93.445313 L 1422.460938 97.460938 L 1415.210938 101.523438 L 1407.839844 105.613281 L 1400.441406 109.746094 L 1392.941406 113.921875 L 1385.359375 118.128906 L 1377.730469 122.378906 L 1370.011719 126.664063 L 1362.210938 130.992188 L 1354.378906 135.355469 L 1346.441406 139.753906 L 1338.421875 144.179688 L 1330.339844 148.664063 L 1322.21875 153.15625 L 1321.570313 153.492188 L 1321.011719 153.699219 L 1320.488281 153.820313 L 1320.03125 153.859375 L 1319.511719 153.816406 L 1319.070313 153.675781 L 1318.640625 153.464844 L 1312 148.808594 L 1306.21875 144.753906 L 1300.519531 140.710938 L 1294.839844 136.726563 L 1289.230469 132.761719 L 1283.679688 128.824219 L 1278.191406 124.949219 L 1272.769531 121.097656 L 1267.398438 117.28125 L 1262.050781 113.488281 L 1256.789063 109.753906 L 1251.570313 106.050781 L 1246.410156 102.378906 L 1241.308594 98.746094 L 1236.261719 95.148438 L 1231.269531 91.582031 L 1226.339844 88.066406 L 1221.460938 84.574219 L 1216.628906 81.128906 L 1210.671875 76.871094 L 1209.25 76.027344 L 1208.441406 75.636719 L 1207.53125 75.300781 L 1206.339844 74.988281 L 1205.058594 74.820313 L 1203.558594 74.75 L 1183.910156 74.882813 L 1165.910156 75.011719 L 1148.570313 75.117188 L 1131.878906 75.234375 L 1115.339844 75.300781 L 1113.878906 75.40625 L 1112.910156 75.621094 L 1111.96875 75.980469 L 1111.21875 76.421875 L 1110.328125 77.15625 L 1109.710938 77.855469 L 1106.011719 82.324219 L 1102.261719 86.851563 L 1098.46875 91.445313 L 1094.761719 95.914063 L 1094.738281 95.914063 L 1090.421875 101.105469 L 1086.050781 106.378906 L 1081.601563 111.742188 L 1077.070313 117.175781 L 1072.050781 123.214844 L 1066.929688 129.335938 L 1061.738281 135.566406 L 1056.449219 141.886719 L 1051.078125 148.3125 L 1045.621094 154.820313 L 1040.078125 161.429688 L 1034.460938 168.164063 L 1028.75 174.957031 L 1022.949219 181.867188 L 1017.039063 188.878906 L 1011.078125 195.972656 L 1004.449219 203.84375 L 1003.550781 205.085938 L 1003.199219 205.648438 L 1002.949219 206.199219 L 1002.839844 206.722656 L 1002.871094 207.222656 L 1003 207.726563 L 1003.261719 208.164063 L 1003.621094 208.476563 L 1004.058594 208.71875 L 1004.570313 208.894531 L 1005.160156 209.019531 L 1006.441406 209.117188 L 1025.511719 209.011719 L 1043.390625 208.890625 L 1061.320313 208.773438 L 1079.308594 208.644531 L 1097.171875 208.496094 L 1114.738281 208.363281 L 1124.171875 208.273438 L 1125.558594 208.128906 L 1126.671875 207.863281 L 1127.609375 207.484375 L 1128.378906 206.996094 L 1129.070313 206.367188 L 1130.050781 205.261719 L 1133.949219 200.203125 L 1137.5 195.613281 L 1141.03125 191.050781 L 1144.539063 186.527344 L 1148.011719 182.039063 L 1151.441406 177.570313 L 1154.859375 173.144531 L 1158.25 168.746094 L 1161.621094 164.386719 L 1164.949219 160.042969 L 1168.25 155.753906 L 1171.539063 151.496094 L 1174.800781 147.261719 L 1178 143.0625 L 1181.210938 138.894531 L 1184.398438 134.753906 L 1187.671875 130.46875 L 1174.398438 125.566406 L 1161.109375 120.632813 L 1147.828125 115.710938 L 1134.570313 110.773438 L 1121.289063 105.828125 L 1108.011719 100.882813 L 1095.308594 96.136719 L 1110.109375 96.539063 L 1126.230469 96.980469 L 1143 97.425781 L 1160.371094 97.878906 L 1172.421875 98.21875 L 1175.140625 98.414063 L 1177.570313 98.679688 L 1179.789063 99.070313 L 1181.921875 99.628906 L 1184.03125 100.332031 L 1185.460938 100.9375 L 1186.839844 101.574219 L 1188.128906 102.265625 L 1189.378906 102.988281 L 1191.640625 104.507813 L 1193.679688 106.066406 L 1196.46875 108.351563 L 1200.921875 112.070313 L 1205.410156 115.8125 L 1209.960938 119.578125 L 1214.558594 123.40625 L 1219.191406 127.253906 L 1223.878906 131.144531 L 1228.621094 135.074219 L 1233.410156 139.042969 L 1238.261719 143.039063 L 1243.140625 147.085938 L 1248.050781 151.148438 L 1253.058594 155.261719 L 1258.078125 159.40625 L 1263.171875 163.601563 L 1268.28125 167.832031 L 1273.449219 172.085938 L 1278.679688 176.378906 L 1283.960938 180.726563 L 1289.261719 185.085938 L 1294.648438 189.484375 L 1300.828125 194.566406 L 1301.191406 194.816406 L 1301.621094 195.023438 L 1302.121094 195.191406 L 1302.660156 195.277344 L 1303.460938 195.257813 L 1304.300781 195.035156 L 1305.289063 194.566406 L 1314.410156 189.527344 L 1323.21875 184.664063 L 1331.960938 179.835938 L 1340.660156 175.042969 L 1349.25 170.261719 L 1357.789063 165.550781 L 1366.269531 160.851563 L 1374.671875 156.203125 L 1382.96875 151.59375 L 1391.21875 147.019531 L 1399.410156 142.476563 L 1407.511719 137.976563 L 1415.148438 133.722656 L 1415.25 133.839844 L 1410.5 139.550781 L 1405.390625 145.640625 L 1400.210938 151.839844 L 1394.96875 158.097656 L 1389.648438 164.441406 L 1384.261719 170.871094 L 1378.78125 177.378906 L 1373.261719 183.957031 L 1367.671875 190.621094 L 1361.96875 197.363281 L 1355.789063 204.746094 L 1355.339844 205.394531 L 1355.230469 205.722656 L 1355.199219 206.050781 L 1355.28125 206.347656 L 1355.371094 206.539063 L 1355.539063 206.6875 L 1355.761719 206.820313 L 1356.058594 206.921875 L 1356.929688 207.003906 L 1357.578125 207.019531 L 1384.539063 206.777344 L 1385.078125 206.726563 L 1385.558594 206.628906 L 1386.050781 206.449219 L 1386.769531 206.003906 L 1387.28125 205.519531 L 1393.71875 197.789063 L 1399.640625 190.644531 L 1405.5 183.621094 L 1411.28125 176.667969 L 1416.96875 169.8125 L 1422.609375 163.046875 L 1428.121094 156.371094 L 1433.578125 149.78125 Z M 1433.578125 149.769531 "/>
<path style=" stroke:none;fill-rule:evenodd;fill:rgb(100%,100%,100%);fill-opacity:1;" d="M 1598.960938 135.472656 L 1602.839844 130.289063 L 1606.671875 125.164063 L 1610.449219 120.105469 L 1614.210938 115.085938 L 1618.210938 109.695313 L 1622.199219 104.351563 L 1626.121094 99.105469 L 1629.96875 93.914063 L 1634.109375 88.324219 L 1634.398438 87.847656 L 1634.648438 87.378906 L 1634.800781 86.90625 L 1634.828125 86.28125 L 1634.738281 85.820313 L 1634.519531 85.367188 L 1634.199219 84.925781 L 1633.78125 84.476563 L 1628.820313 80.425781 L 1624.378906 76.859375 L 1619.371094 72.773438 L 1618.191406 71.980469 L 1617.699219 71.710938 L 1616.578125 71.300781 L 1615.851563 71.148438 L 1614.828125 71.050781 L 1613.511719 71.039063 L 1539.75 71.679688 L 1538.488281 71.820313 L 1537.78125 72.019531 L 1536.929688 72.460938 L 1536.25 72.9375 L 1535.390625 73.789063 L 1531 79.15625 L 1527.050781 83.960938 L 1523.050781 88.832031 L 1519 93.785156 L 1514.921875 98.789063 L 1510.730469 103.859375 L 1506.5 109.007813 L 1502.558594 113.800781 L 1498.550781 118.679688 L 1494.480469 123.59375 L 1490.359375 128.574219 L 1486.21875 133.601563 L 1482.011719 138.695313 L 1477.761719 143.851563 L 1473 149.601563 L 1468.191406 155.421875 L 1463.308594 161.289063 L 1458.351563 167.257813 L 1453.359375 173.285156 L 1448.300781 179.382813 L 1443.71875 184.871094 L 1439.101563 190.410156 L 1434.46875 196.007813 L 1428.910156 202.664063 L 1428.539063 203.191406 L 1428.25 203.703125 L 1428.050781 204.210938 L 1427.980469 204.730469 L 1428 205.023438 L 1428.21875 205.511719 L 1428.339844 205.710938 L 1428.558594 205.914063 L 1429.050781 206.175781 L 1429.53125 206.332031 L 1430.519531 206.460938 L 1432.011719 206.472656 L 1543.519531 205.753906 L 1544.441406 205.695313 L 1545.210938 205.535156 L 1545.859375 205.246094 L 1546.410156 204.925781 L 1546.859375 204.570313 L 1547.488281 203.882813 L 1547.988281 203.222656 L 1552.550781 197.195313 L 1557.050781 191.214844 L 1561.5 185.296875 L 1565.929688 179.449219 L 1570.289063 173.664063 L 1574.578125 167.929688 L 1578.859375 162.273438 L 1582.960938 156.789063 L 1587.050781 151.375 L 1591.050781 146.011719 L 1595.039063 140.710938 L 1598.960938 135.46875 Z M 1598.960938 135.472656 "/>
<path style=" stroke:none;fill-rule:evenodd;fill:rgb(100%,100%,100%);fill-opacity:1;" d="M 1954.121094 147.324219 L 1959.300781 140.894531 L 1964.398438 134.5625 L 1969.441406 128.308594 L 1974.378906 122.132813 L 1979.28125 116.0625 L 1984.089844 110.054688 L 1988.78125 104.148438 L 1993.449219 98.335938 L 1998.03125 92.601563 L 2002.558594 86.949219 L 2006.988281 81.386719 L 2012.039063 74.992188 L 2012.488281 74.195313 L 2012.621094 73.800781 L 2012.660156 73.402344 L 2012.5 72.878906 L 2012.238281 72.539063 L 2011.96875 72.390625 L 2011.648438 72.253906 L 2011.171875 72.148438 L 2010.480469 72.097656 L 2009.519531 72.097656 L 1989.679688 72.316406 L 1988.511719 72.417969 L 1987.570313 72.601563 L 1986.738281 72.953125 L 1986.238281 73.230469 L 1985.429688 73.855469 L 1984.671875 74.617188 L 1979.769531 80.769531 L 1975.449219 86.210938 L 1971.039063 91.726563 L 1966.558594 97.324219 L 1962.011719 103.019531 L 1957.421875 108.792969 L 1952.710938 114.632813 L 1947.941406 120.574219 L 1943.121094 126.589844 L 1938.210938 132.6875 L 1933.25 138.871094 L 1928.210938 145.144531 L 1923.089844 151.480469 L 1917.421875 158.519531 L 1916.910156 158.980469 L 1916.308594 159.40625 L 1915.929688 159.550781 L 1915.300781 159.652344 L 1914.941406 159.621094 L 1914.210938 159.414063 L 1913.339844 158.917969 L 1906.941406 154.148438 L 1901.078125 149.78125 L 1895.261719 145.4375 L 1889.519531 141.128906 L 1883.820313 136.871094 L 1878.160156 132.648438 L 1872.550781 128.457031 L 1867.058594 124.308594 L 1861.550781 120.203125 L 1856.121094 116.136719 L 1850.761719 112.089844 L 1845.449219 108.105469 L 1840.191406 104.148438 L 1835 100.222656 L 1829.839844 96.347656 L 1824.769531 92.492188 L 1819.699219 88.683594 L 1814.738281 84.914063 L 1809.820313 81.179688 L 1803.828125 76.652344 L 1802.511719 75.800781 L 1801.769531 75.398438 L 1800.929688 75.042969 L 1800.011719 74.730469 L 1798.601563 74.402344 L 1797.140625 74.214844 L 1794.539063 74.160156 L 1774.878906 74.320313 L 1756.078125 74.460938 L 1737.949219 74.585938 L 1729.140625 74.632813 L 1720.488281 74.707031 L 1712 74.742188 L 1703.660156 74.792969 L 1694.230469 74.878906 L 1692.960938 74.945313 L 1691.710938 75.144531 L 1691.089844 75.296875 L 1690.480469 75.503906 L 1689.878906 75.769531 L 1688.851563 76.339844 L 1687.988281 76.96875 L 1687.300781 77.664063 L 1686.429688 78.699219 L 1681.539063 85.257813 L 1677.289063 91.011719 L 1672.960938 96.816406 L 1672.929688 96.816406 L 1668.601563 102.644531 L 1664.191406 108.566406 L 1659.691406 114.566406 L 1655.128906 120.664063 L 1650.488281 126.847656 L 1645.820313 133.128906 L 1641.039063 139.488281 L 1636.179688 145.929688 L 1631.28125 152.476563 L 1626.28125 159.101563 L 1621.238281 165.808594 L 1616.101563 172.613281 L 1610.960938 179.429688 L 1605.761719 186.347656 L 1600.480469 193.332031 L 1594.660156 201.042969 L 1593.941406 202.191406 L 1593.699219 202.722656 L 1593.578125 203.222656 L 1593.589844 203.699219 L 1593.710938 204.15625 L 1593.988281 204.539063 L 1594.320313 204.824219 L 1594.761719 205.039063 L 1595.261719 205.175781 L 1596.378906 205.289063 L 1614.859375 205.230469 L 1632.070313 205.148438 L 1649.300781 205.046875 L 1666.5 204.957031 L 1683.738281 204.863281 L 1701.699219 204.726563 L 1702.96875 204.585938 L 1703.511719 204.464844 L 1704.019531 204.296875 L 1704.480469 204.082031 L 1704.910156 203.789063 L 1705.78125 203.050781 L 1706.699219 202.035156 L 1714.199219 192.972656 L 1717.898438 188.488281 L 1721.589844 184.046875 L 1725.839844 178.894531 L 1730.058594 173.777344 L 1734.21875 168.714844 L 1738.359375 163.699219 L 1742.460938 158.753906 L 1746.5 153.835938 L 1750.5 148.980469 L 1754.460938 144.175781 L 1758.351563 139.414063 L 1762.210938 134.707031 L 1766.058594 130.054688 L 1769.828125 125.445313 L 1767.140625 124.34375 L 1764.460938 123.410156 L 1760.101563 122.082031 L 1745.570313 117.894531 L 1731.050781 113.691406 L 1716.511719 109.480469 L 1702 105.265625 L 1687.46875 101.03125 L 1673.058594 96.847656 L 1681.058594 97.113281 L 1689.351563 97.394531 L 1697.820313 97.675781 L 1706.441406 97.960938 L 1715.25 98.253906 L 1724.199219 98.539063 L 1733.378906 98.832031 L 1742.660156 99.132813 L 1752.148438 99.4375 L 1761.820313 99.746094 L 1781.640625 100.359375 L 1783.96875 100.492188 L 1785.921875 100.710938 L 1787.589844 101.039063 L 1789.078125 101.511719 L 1790.53125 102.089844 L 1791.78125 102.734375 L 1792.980469 103.410156 L 1794.109375 104.132813 L 1796.179688 105.652344 L 1802.859375 110.980469 L 1807.710938 114.847656 L 1812.621094 118.769531 L 1817.578125 122.71875 L 1822.601563 126.703125 L 1827.691406 130.738281 L 1832.78125 134.796875 L 1837.949219 138.894531 L 1843.160156 143.019531 L 1848.429688 147.199219 L 1853.738281 151.402344 L 1859.101563 155.636719 L 1864.53125 159.925781 L 1869.980469 164.242188 L 1875.488281 168.601563 L 1881.058594 172.976563 L 1886.671875 177.394531 L 1892.328125 181.847656 L 1898.03125 186.355469 L 1903.800781 190.871094 L 1910.398438 196.050781 L 1911.039063 196.441406 L 1911.800781 196.753906 L 1912.21875 196.828125 L 1912.890625 196.851563 L 1913.308594 196.757813 L 1913.710938 196.613281 L 1914.410156 196.199219 L 1914.988281 195.707031 L 1915.820313 194.730469 L 1921.5 187.710938 L 1927.140625 180.746094 L 1932.691406 173.898438 L 1938.140625 167.132813 L 1943.539063 160.445313 L 1948.878906 153.839844 Z M 1954.121094 147.324219 "/>
<path style=" stroke:none;fill-rule:evenodd;fill:rgb(100%,100%,100%);fill-opacity:1;" d="M 2348.808594 197.464844 L 2348.488281 196.976563 L 2348.101563 196.488281 L 2347.609375 195.992188 L 2346.851563 195.269531 L 2345.121094 193.835938 L 2337.769531 188.035156 L 2330.5 182.277344 L 2323.320313 176.574219 L 2316.210938 170.945313 L 2309.160156 165.355469 L 2302.210938 159.828125 L 2295.320313 154.367188 L 2288.550781 148.957031 L 2281.820313 143.617188 L 2275.160156 138.324219 L 2268.621094 133.082031 L 2262.308594 128.0625 L 2256.070313 123.089844 L 2249.929688 118.175781 L 2243.820313 113.300781 L 2237.839844 108.5 L 2231.898438 103.742188 L 2226.050781 99.058594 L 2220.261719 94.414063 L 2214.550781 89.828125 L 2208.898438 85.285156 L 2203.351563 80.816406 L 2197.859375 76.402344 L 2191.699219 71.421875 L 2190.480469 70.59375 L 2189.570313 70.125 L 2188.449219 69.722656 L 2187.609375 69.539063 L 2186.421875 69.417969 L 2184.929688 69.398438 L 2054.730469 70.53125 L 2053.96875 70.613281 L 2052.988281 70.820313 L 2052.210938 71.148438 L 2051.328125 71.675781 L 2050.730469 72.214844 L 2050.101563 72.894531 L 2045.699219 78.410156 L 2041.789063 83.316406 L 2037.839844 88.28125 L 2033.808594 93.324219 L 2029.738281 98.40625 L 2025.609375 103.582031 L 2021.410156 108.820313 L 2017.148438 114.128906 L 2012.859375 119.503906 L 2008.488281 124.945313 L 2004.050781 130.453125 L 1999.550781 136.019531 L 1995.25 141.382813 L 1990.898438 146.789063 L 1986.480469 152.273438 L 1982 157.816406 L 1977.488281 163.421875 L 1972.921875 169.070313 L 1968.289063 174.796875 L 1963.609375 180.582031 L 1958.878906 186.421875 L 1954.109375 192.335938 L 1948.460938 199.296875 L 1948.121094 199.820313 L 1947.808594 200.332031 L 1947.621094 200.847656 L 1947.558594 201.367188 L 1947.558594 201.703125 L 1947.789063 202.222656 L 1947.929688 202.410156 L 1948.160156 202.597656 L 1948.628906 202.878906 L 1949.160156 203.03125 L 1950.160156 203.152344 L 1951.640625 203.171875 L 2052.578125 202.523438 L 2053.71875 202.445313 L 2054.71875 202.246094 L 2055.511719 201.921875 L 2056.421875 201.40625 L 2057.070313 200.867188 L 2057.730469 200.164063 L 2063.421875 193.328125 L 2068.488281 187.238281 L 2073.488281 181.203125 L 2078.460938 175.234375 L 2083.351563 169.324219 L 2088.179688 163.488281 L 2092.988281 157.707031 L 2097.699219 151.992188 L 2102.359375 146.347656 L 2107.53125 140.054688 L 2107.980469 139.351563 L 2108.308594 138.632813 L 2108.480469 138.003906 L 2108.570313 137.386719 L 2108.601563 136.136719 L 2108.570313 130.105469 L 2108.53125 129.394531 L 2108.371094 128.683594 L 2108.070313 127.980469 L 2107.75 127.457031 L 2107.289063 126.941406 L 2106.730469 126.421875 L 2099.878906 121.328125 L 2093.75 116.789063 L 2087.699219 112.304688 L 2081.710938 107.867188 L 2075.78125 103.472656 L 2069.910156 99.128906 L 2064.128906 94.84375 L 2151.648438 94.277344 L 2157.589844 99.046875 L 2163.601563 103.863281 L 2169.679688 108.738281 L 2175.851563 113.664063 L 2182.070313 118.65625 L 2188.398438 123.699219 L 2194.828125 128.800781 L 2201.289063 133.972656 L 2207.839844 139.195313 L 2214.46875 144.488281 L 2221.808594 150.324219 L 2222.929688 151.304688 L 2223.371094 151.796875 L 2223.710938 152.289063 L 2223.941406 152.796875 L 2224.011719 153.296875 L 2223.96875 153.71875 L 2223.878906 153.964844 L 2223.71875 154.210938 L 2223.511719 154.453125 L 2222.898438 154.871094 L 2222.011719 155.203125 L 2220.960938 155.445313 L 2180.480469 160.96875 L 2179.460938 161.1875 L 2178.890625 161.40625 L 2178.558594 161.597656 L 2178.308594 161.796875 L 2178.21875 161.988281 L 2178.148438 162.226563 L 2178.21875 162.480469 L 2178.398438 162.722656 L 2178.699219 162.984375 L 2179.121094 163.226563 L 2180.308594 163.660156 L 2209 171.34375 L 2236.628906 178.753906 L 2265.539063 186.480469 L 2267 186.960938 L 2268.160156 187.453125 L 2269.089844 187.984375 L 2269.859375 188.488281 L 2277.628906 194.601563 L 2284.628906 200.132813 L 2285.359375 200.578125 L 2286.210938 200.886719 L 2286.988281 201.015625 L 2287.949219 201.035156 L 2343.898438 200.675781 L 2345.019531 200.625 L 2346.050781 200.546875 L 2347.128906 200.351563 L 2347.738281 200.144531 L 2348.210938 199.910156 L 2348.550781 199.667969 L 2348.75 199.4375 L 2349 198.957031 L 2349.058594 198.445313 L 2349 197.953125 L 2348.808594 197.445313 Z M 2348.808594 197.464844 "/>
<path style=" stroke:none;fill-rule:evenodd;fill:rgb(100%,100%,100%);fill-opacity:1;" d="M 2624.628906 100.496094 L 2624.46875 99.816406 L 2624.25 99.164063 L 2623.820313 98.308594 L 2623.210938 97.46875 L 2622.398438 96.613281 L 2621.578125 95.882813 L 2620.621094 95.164063 L 2618.398438 93.757813 L 2609.949219 88.789063 L 2602.769531 84.59375 L 2595.660156 80.4375 L 2588.679688 76.328125 L 2578.75 70.511719 L 2575.519531 68.765625 L 2572.789063 67.441406 L 2570.660156 66.507813 L 2568.171875 65.585938 L 2566.75 65.140625 L 2564.238281 64.453125 L 2562.011719 63.964844 L 2559.128906 63.507813 L 2556.121094 63.199219 L 2553.039063 63.050781 L 2548.089844 63.019531 L 2243.269531 65.632813 L 2242.230469 65.726563 L 2241.460938 65.894531 L 2241.039063 66.054688 L 2240.660156 66.28125 L 2240.441406 66.507813 L 2240.28125 66.734375 L 2240.230469 66.945313 L 2240.179688 67.289063 L 2240.28125 67.757813 L 2240.46875 68.226563 L 2240.820313 68.710938 L 2241.25 69.179688 L 2242.839844 70.59375 L 2248.179688 75.109375 L 2253.578125 79.671875 L 2259.089844 84.335938 L 2264.648438 89.039063 L 2270.28125 93.804688 L 2276.539063 99.097656 L 2277.488281 99.773438 L 2277.941406 99.996094 L 2278.699219 100.304688 L 2279.398438 100.464844 L 2280.359375 100.589844 L 2534.050781 98.984375 L 2534.070313 99.132813 L 2500.921875 105.765625 L 2466.53125 112.648438 L 2462.449219 117.570313 L 2458.351563 122.554688 L 2454.160156 127.601563 L 2449.949219 132.695313 L 2445.640625 137.839844 L 2441.320313 143.066406 L 2384.179688 147.132813 L 2381.988281 147.371094 L 2380.210938 147.6875 L 2378.980469 148.003906 L 2378.109375 148.339844 L 2377.410156 148.664063 L 2376.890625 149.015625 L 2376.488281 149.351563 L 2376.199219 149.691406 L 2376.011719 150.035156 L 2375.851563 150.371094 L 2375.75 150.777344 L 2375.730469 151.179688 L 2375.828125 151.839844 L 2376.070313 152.511719 L 2376.488281 153.179688 L 2377.039063 153.824219 L 2377.699219 154.5 L 2378.460938 155.160156 L 2379.480469 155.921875 L 2381.75 157.476563 L 2390.269531 162.894531 L 2397.640625 167.59375 L 2405.089844 172.332031 L 2412.589844 177.101563 L 2420.171875 181.925781 L 2427.828125 186.796875 L 2435.558594 191.710938 L 2443.320313 196.648438 L 2452.300781 202.359375 L 2461.378906 208.140625 L 2470.539063 213.957031 L 2479.769531 219.820313 L 2489.109375 225.742188 L 2498.539063 231.734375 L 2509.53125 238.691406 L 2510.859375 239.40625 L 2512.078125 239.910156 L 2513.601563 240.351563 L 2515.011719 240.582031 L 2517.210938 240.691406 L 2580.148438 240.289063 L 2581.691406 240.183594 L 2582.371094 240.054688 L 2582.941406 239.820313 L 2583.320313 239.617188 L 2583.558594 239.410156 L 2583.71875 239.191406 L 2583.851563 238.828125 L 2583.890625 238.257813 L 2583.78125 237.882813 L 2583.609375 237.496094 L 2583.371094 237.105469 L 2582.890625 236.539063 L 2581.738281 235.445313 L 2574.839844 229.351563 L 2568.648438 223.851563 L 2562.480469 218.429688 L 2556.359375 213.039063 L 2550.320313 207.6875 L 2544.320313 202.382813 L 2537.671875 196.523438 L 2531.078125 190.695313 L 2524.578125 184.941406 L 2518.109375 179.242188 L 2511.210938 173.101563 L 2510.800781 172.601563 L 2510.410156 172.097656 L 2510.210938 171.613281 L 2510.121094 171.121094 L 2510.191406 170.679688 L 2510.378906 170.226563 L 2510.621094 169.941406 L 2510.921875 169.664063 L 2511.300781 169.382813 L 2511.851563 169.105469 L 2516.28125 167.476563 L 2518.839844 166.480469 L 2521.238281 165.476563 L 2525.699219 163.457031 L 2529.730469 161.453125 L 2532.5 160.007813 L 2537.699219 157.085938 L 2545.050781 152.742188 L 2553.421875 147.71875 L 2561.71875 142.734375 L 2569.921875 137.816406 L 2578.03125 132.925781 L 2586.050781 128.117188 L 2594 123.335938 L 2601.839844 118.621094 L 2609.621094 113.945313 L 2618.519531 108.582031 L 2619.699219 107.832031 L 2620.808594 107.082031 L 2621.691406 106.382813 L 2622.429688 105.710938 L 2623.109375 105.023438 L 2623.628906 104.335938 L 2624.070313 103.539063 L 2624.421875 102.757813 L 2624.628906 101.964844 L 2624.679688 101.171875 Z M 2624.628906 100.496094 "/>
<path style=" stroke:none;fill-rule:evenodd;fill:rgb(100%,100%,100%);fill-opacity:1;" d="M 989.761719 107.300781 L 977.050781 110.773438 L 975.640625 113.878906 L 972.738281 120.070313 L 971.160156 123.398438 L 970.328125 125.09375 L 969.421875 126.785156 L 968.460938 128.484375 L 967.371094 130.164063 L 966.191406 131.871094 L 964.621094 133.898438 L 963.738281 134.914063 L 962.78125 135.929688 L 961.738281 136.957031 L 960.578125 137.976563 L 959.28125 139.007813 L 957.851563 140.03125 L 956.28125 141.039063 L 954.140625 142.257813 L 951.671875 143.457031 L 949.160156 144.476563 L 946.71875 145.320313 L 943.878906 146.15625 L 941.03125 146.847656 L 936.300781 147.78125 L 930.691406 148.710938 L 884.941406 155.984375 L 838.699219 163.328125 L 792.035156 170.738281 L 742.316406 178.617188 L 740.140625 178.890625 L 737.664063 179.054688 L 736.355469 179.109375 L 734.921875 179.070313 L 733.464844 178.988281 L 731.367188 178.726563 L 729.683594 178.410156 L 727.828125 177.929688 L 726.316406 177.472656 L 723.621094 176.519531 L 718.902344 174.671875 L 715.769531 173.320313 L 714.34375 172.621094 L 713.046875 171.921875 L 711.898438 171.226563 L 710.726563 170.414063 L 709.714844 169.59375 L 708.855469 168.773438 L 708.117188 167.9375 L 707.527344 167.132813 L 706.882813 166.078125 L 706.410156 165.007813 L 706.078125 163.957031 L 705.910156 162.910156 L 705.839844 161.863281 L 705.855469 161.382813 L 705.976563 160.101563 L 706.269531 158.859375 L 706.703125 157.597656 L 707.289063 156.351563 L 708.03125 155.085938 L 708.878906 153.851563 L 709.871094 152.597656 L 711.007813 151.359375 L 712.511719 149.882813 L 714.15625 148.40625 L 715.898438 146.9375 L 719.578125 144.003906 L 725.515625 139.367188 L 731.371094 134.769531 L 737.183594 130.207031 L 742.914063 125.710938 L 750.617188 119.679688 L 754.699219 116.535156 L 756.835938 114.972656 L 759.070313 113.40625 L 761.410156 111.871094 L 763.886719 110.335938 L 766.9375 108.601563 L 768.59375 107.734375 L 770.363281 106.867188 L 773.746094 105.347656 L 777.121094 104.039063 L 779.015625 103.398438 L 782.316406 102.398438 L 785.105469 101.664063 L 788.371094 100.960938 L 791.464844 100.414063 L 795.90625 99.789063 L 799.515625 99.429688 L 804.59375 99.09375 L 809.769531 98.90625 L 818.261719 98.78125 L 1026.699219 96.996094 L 1026.710938 97.148438 L 1014.859375 100.398438 L 1002.359375 103.828125 L 989.761719 107.296875 Z M 1011.410156 145.117188 L 1016.171875 139.496094 L 1020.851563 133.957031 L 1025.46875 128.492188 L 1030.03125 123.070313 L 1034.53125 117.734375 L 1038.96875 112.457031 L 1044.261719 106.171875 L 1045.101563 105.101563 L 1045.871094 104.023438 L 1046.53125 102.945313 L 1047.058594 101.851563 L 1047.441406 100.746094 L 1047.671875 99.664063 L 1047.738281 98.5625 L 1047.699219 97.757813 L 1047.519531 96.789063 L 1047.210938 95.832031 L 1046.75 94.882813 L 1046.148438 93.914063 L 1045.378906 92.972656 L 1044.519531 92.101563 L 1043.539063 91.242188 L 1041.320313 89.515625 L 1035.511719 85.164063 L 1032.550781 83.117188 L 1030.039063 81.554688 L 1028.058594 80.460938 L 1026.929688 79.898438 L 1025.691406 79.359375 L 1024.339844 78.8125 L 1021.929688 77.992188 L 1019.78125 77.40625 L 1017.789063 76.984375 L 1015.140625 76.59375 L 1012.78125 76.390625 L 1010.289063 76.28125 L 1005.011719 76.246094 L 763.660156 78.328125 L 757.675781 78.488281 L 753.945313 78.664063 L 750.226563 78.957031 L 746.761719 79.335938 L 742.515625 79.953125 L 739.585938 80.492188 L 736.488281 81.191406 L 732.570313 82.242188 L 728.867188 83.429688 L 725.605469 84.621094 L 721.921875 86.195313 L 719.839844 87.148438 L 716.03125 89.085938 L 713.238281 90.628906 L 710.59375 92.179688 L 708.046875 93.734375 L 703.152344 96.878906 L 693.847656 103.035156 L 686.84375 107.671875 L 679.734375 112.363281 L 672.53125 117.109375 L 665.261719 121.910156 L 657.871094 126.785156 L 650.429688 131.679688 L 642.867188 136.644531 L 635.238281 141.664063 L 628.128906 146.34375 L 620.9375 151.054688 L 613.703125 155.796875 L 606.363281 160.609375 L 598.964844 165.460938 L 591.488281 170.359375 L 583.925781 175.296875 L 574.785156 181.289063 L 571.90625 183.304688 L 570.621094 184.3125 L 569.496094 185.335938 L 568.484375 186.394531 L 567.683594 187.453125 L 567.046875 188.496094 L 566.601563 189.566406 L 566.351563 190.617188 L 566.265625 191.6875 L 566.308594 192.460938 L 566.460938 193.242188 L 566.710938 194.007813 L 567.074219 194.796875 L 567.539063 195.570313 L 568.128906 196.335938 L 568.867188 197.113281 L 569.753906 197.890625 L 570.796875 198.648438 L 571.996094 199.421875 L 573.277344 200.15625 L 574.714844 200.851563 L 577.847656 202.238281 L 591.90625 208.050781 L 593.671875 208.742188 L 596.453125 209.722656 L 598.554688 210.335938 L 601.0625 210.910156 L 603.449219 211.316406 L 606.132813 211.5625 L 609.539063 211.679688 L 612.472656 211.679688 L 922.828125 209.695313 L 927.03125 209.585938 L 930.878906 209.382813 L 934.578125 209.054688 L 938.058594 208.578125 L 940.921875 208.078125 L 943.359375 207.539063 L 945.46875 206.992188 L 947.210938 206.46875 L 950.28125 205.414063 L 952.910156 204.335938 L 955.949219 202.910156 L 957.660156 202.007813 L 959.230469 201.085938 L 962.050781 199.269531 L 964.058594 197.851563 L 965.910156 196.421875 L 967.621094 194.992188 L 969.21875 193.578125 L 971.28125 191.660156 L 973.199219 189.71875 L 975.019531 187.804688 L 978.441406 183.988281 L 981.660156 180.195313 L 986.78125 174.191406 L 991.820313 168.234375 L 996.808594 162.359375 L 1001.738281 156.539063 L 1006.601563 150.796875 Z M 1011.410156 145.117188 "/>
</g>
</svg>
